<svg id="visual" viewBox="0 0 900 450" width="900" height="450" xmlns="http://www.w3.org/2000/svg" xmlns:xlink="http://www.w3.org/1999/xlink" version="1.1"><rect x="0" y="0" width="900" height="450" fill="#1a1a1a"></rect><defs><linearGradient id="grad1_0" x1="50%" y1="0%" x2="100%" y2="100%"><stop offset="10%" stop-color="#1a1a1a" stop-opacity="1"></stop><stop offset="90%" stop-color="#1a1a1a" stop-opacity="1"></stop></linearGradient></defs><defs><linearGradient id="grad2_0" x1="0%" y1="0%" x2="50%" y2="100%"><stop offset="10%" stop-color="#1a1a1a" stop-opacity="1"></stop><stop offset="90%" stop-color="#1a1a1a" stop-opacity="1"></stop></linearGradient></defs><g transform="translate(900, 0)"><path d="M0 360C-16.2 339 -32.5 318 -49.3 311.1C-66.1 304.3 -83.4 311.6 -102 313.8C-120.6 316.1 -140.4 313.2 -153 300.3C-165.6 287.4 -170.9 264.5 -184.6 254C-198.3 243.6 -220.4 245.5 -241.1 241.1C-261.8 236.7 -281.1 226 -284.8 206.9C-288.5 187.8 -276.6 160.2 -278 141.6C-279.4 123.1 -294.1 113.4 -311 101C-327.9 88.7 -347 73.6 -355.6 56.3C-364.1 39 -362.1 19.5 -360 0L0 0Z" fill="#0088aa"></path></g><g transform="translate(0, 450)"><path d="M0 -360C18.9 -358.8 37.9 -357.6 56 -353.6C74.1 -349.5 91.5 -342.6 109.7 -337.6C127.9 -332.6 147 -329.5 163.4 -320.8C179.9 -312 193.6 -297.6 206.3 -284C219 -270.3 230.5 -257.5 246.1 -246.1C261.6 -234.6 281.2 -224.6 283.2 -205.7C285.2 -186.8 269.6 -159.1 281.6 -143.5C293.5 -127.8 333 -124.2 336.7 -109.4C340.4 -94.6 308.3 -68.6 306.2 -48.5C304.1 -28.4 332.1 -14.2 360 0L0 0Z" fill="#0088aa"></path></g></svg>