<?xml version="1.0" encoding="UTF-8" standalone="no"?>
<svg
   xmlns:dc="http://purl.org/dc/elements/1.1/"
   xmlns:cc="http://creativecommons.org/ns#"
   xmlns:rdf="http://www.w3.org/1999/02/22-rdf-syntax-ns#"
   xmlns:svg="http://www.w3.org/2000/svg"
   xmlns="http://www.w3.org/2000/svg"
   xmlns:xlink="http://www.w3.org/1999/xlink"
   xmlns:sodipodi="http://sodipodi.sourceforge.net/DTD/sodipodi-0.dtd"
   xmlns:inkscape="http://www.inkscape.org/namespaces/inkscape"
   width="55.007023mm"
   height="70.100296mm"
   viewBox="0 0 55.007023 70.100296"
   version="1.1"
   id="svg8"
   inkscape:version="1.0.1 (3bc2e813f5, 2020-09-07)"
   sodipodi:docname="avataaars.svg">
  <defs
     id="defs2">
    <circle
       id="react-path-1"
       cx="120"
       cy="120"
       r="120" />
    <path
       d="m 12,160 c 0,66.27417 53.72583,120 120,120 66.27417,0 120,-53.72583 120,-120 h 12 V 0 H 0 v 160 z"
       id="react-path-2" />
    <path
       d="M 124,144.61095 V 163 h 4 v 0 c 39.7645,0 72,32.2355 72,72 v 9 H 0 v -9 c 0,-39.7645 32.235498,-72 72,-72 v 0 h 4 V 144.61095 C 58.762634,136.42237 46.372225,119.68701 44.305139,99.881238 38.480311,99.057787 34,94.05211 34,88 V 74 C 34,68.054007 38.324573,63.118073 44,62.165917 V 56 56 C 44,25.072054 69.072054,0 100,0 v 0 0 c 30.92795,0 56,25.072054 56,56 v 6.165917 c 5.67543,0.952156 10,5.88809 10,11.834083 v 14 c 0,6.05211 -4.48031,11.057787 -10.30514,11.881238 C 153.62778,119.68701 141.23736,136.42237 124,144.61095 Z"
       id="react-path-3" />
    <path
       d="M 105.1924,29.051724 H 104 v 0 c -39.764502,0 -72,32.235497 -72,71.999996 V 110 h 200 v -8.94828 C 232,61.287221 199.7645,29.051724 160,29.051724 v 0 h -1.1924 c 0.12704,0.98359 0.1924,1.984727 0.1924,3 0,13.807118 -12.08831,25 -27,25 -14.91169,0 -27,-11.192882 -27,-25 0,-1.015273 0.0654,-2.01641 0.1924,-3 z"
       id="react-path-911" />
    <path
       d="M 35.117844,15.128077 C 36.175712,24.619802 44.225987,32 54,32 63.804206,32 71.874008,24.574136 72.891759,15.040055 72.973669,14.272746 72.116743,13 71.042767,13 c -14.894013,0 -26.304846,0 -33.955943,0 -1.080207,0 -2.074818,1.178444 -1.96898,2.128077 z"
       id="react-path-851" />
    <rect
       id="react-path-631"
       x="0"
       y="0"
       width="264"
       height="280" />
    <path
       d="M 21,157.54081 V 69.046252 C 21,65.514048 21.398116,62.07483 22.151923,58.77102 25.205041,38.731419 36.775268,22.810886 50,13 69.904644,-1.7596171 103.44194,-6.0182825 115.04707,11.522105 123.69834,7.6810354 136.51905,11.182111 146,20 c 9.56516,9.415044 17.19967,30.197377 12.65741,47.203517 0.10469,1.265679 0.15807,2.545519 0.15807,3.837379 V 92.89212 C 157.93414,87.918301 153.98899,84.002912 149,83.165917 V 83 C 142.96385,61.464209 125.22952,51.580047 114.42968,41.777113 97.535357,60.673258 44.822641,60.739807 27,98 v 10 c 0,6.01863 4.430871,11.00236 10.208581,11.86719 C 38.951807,140.11479 51.469218,157.28298 69,165.61095 V 166 c 2.930371,43.85511 -6.641538,98.79743 -69,82 13.605733,-7.96225 20.808112,-58.94444 21,-90.45919 z m 96,8.07014 c 17.53078,-8.32797 30.04819,-25.49616 31.79142,-45.74376 5.08734,-0.76149 9.13047,-4.71637 10.02406,-9.75931 v 1.36251 0 c 0,15.82816 3.75723,31.43025 10.96272,45.52322 l 26.94847,52.70757 c 6.96309,13.61887 4.91889,29.47239 -3.93596,40.76779 C 189.96621,213.28881 158.90349,184 121,184 v 0 h -4 z"
       id="react-path-632" />
    <path
       d="m 65.180219,77.737299 c 2.182966,-1.632766 15.226292,-2.258648 17.57761,-3.64785 0.733817,-0.434063 1.303243,-0.87373 1.741949,-1.309442 0.439036,0.435712 1.008792,0.875379 1.742609,1.309442 2.350988,1.389202 15.394313,2.015084 17.577283,3.64785 2.21036,1.653529 3.8239,5.447384 3.6473,8.413651 -0.21193,3.559191 -4.10548,12.051943 -13.794643,13.030152 -2.114634,-2.352909 -5.435462,-3.870649 -9.172549,-3.870649 -3.736426,0 -7.057584,1.51774 -9.172219,3.870649 C 65.638731,98.202893 61.745176,89.710141 61.53325,86.15095 c -0.176605,-2.966267 1.436935,-6.760122 3.646969,-8.413651 m 37.961421,17.169082 c 0.001,-6.59e-4 0.003,-0.0013 0.004,-0.0016 -0.002,3.3e-4 -0.003,9.89e-4 -0.004,0.0016 m -37.296265,-0.0049 c 0.004,0.0016 0.01122,0.0043 0.0165,0.0063 -0.0053,-0.002 -0.01089,-0.0043 -0.0165,-0.0063 M 144.86259,55.985334 c -0.3882,-5.954946 -1.58482,-11.833428 -2.6286,-17.699056 C 141.95274,36.707235 140.42371,26 139.73478,26 c -0.23239,9.109406 -1.03289,18.080386 -2.06512,27.139365 -0.30864,2.708202 -0.63181,5.417063 -0.8444,8.134822 -0.17165,2.195368 0.13435,4.847869 -0.39744,6.971387 -0.67869,2.706883 -4.07973,5.232824 -6.72484,6.165221 -6.60007,2.326542 -12.10518,-7.303026 -17.742,-10.119661 C 104.64327,60.634715 92.063739,59.763989 84.581643,64.529792 76.936147,59.763989 64.356614,60.634715 57.038909,64.291134 51.402415,67.107769 45.896971,76.737337 39.297238,74.410795 36.65213,73.478398 33.250427,70.952457 32.572397,68.245574 32.040272,66.122056 32.346277,63.469555 32.174954,61.274187 31.962368,58.556428 31.638868,55.847567 31.330223,53.139365 30.298323,44.080386 29.497495,35.109406 29.265433,26 28.57618,26 27.046817,36.707235 26.7659,38.286278 c -1.043783,5.865628 -2.240073,11.74411 -2.628274,17.699056 -0.399093,6.119408 0.07724,12.182128 1.331963,18.177942 0.599135,2.864426 1.298952,5.712371 2.049274,8.540872 0.833838,3.142595 -0.319869,9.262004 0.05348,12.487984 0.706419,6.103588 3.581939,18.007548 6.810999,23.258828 1.560722,2.53814 3.390149,4.12278 5.433151,6.16819 1.966089,1.96894 2.787383,5.0209 4.909609,7.11772 3.955945,3.90822 9.719529,6.23443 15.639581,6.80626 5.31167,4.50708 14.139922,7.45687 24.134095,7.45687 9.994833,0 18.822752,-2.94979 24.134762,-7.45687 5.91939,-0.57183 11.6833,-2.89804 15.63958,-6.80626 2.1219,-2.09682 2.94319,-5.14878 4.90961,-7.11772 2.04267,-2.04541 3.8721,-3.63005 5.43315,-6.16819 3.22873,-5.25128 6.10458,-17.15524 6.81067,-23.258828 0.37334,-3.22598 -0.78037,-9.345389 0.0538,-12.487984 0.75033,-2.828501 1.44981,-5.676446 2.04928,-8.540872 1.25406,-5.995814 1.73072,-12.058534 1.33196,-18.177942 z"
       id="react-path-633" />
  </defs>
  <sodipodi:namedview
     id="base"
     pagecolor="#ffffff"
     bordercolor="#666666"
     borderopacity="1.0"
     inkscape:pageopacity="0.0"
     inkscape:pageshadow="2"
     inkscape:zoom="0.99324324"
     inkscape:cx="-27.818253"
     inkscape:cy="178.0011"
     inkscape:document-units="mm"
     inkscape:current-layer="Avataaar"
     inkscape:document-rotation="0"
     showgrid="false"
     inkscape:window-width="1267"
     inkscape:window-height="1040"
     inkscape:window-x="26"
     inkscape:window-y="0"
     inkscape:window-maximized="0" />
  <metadata
     id="metadata5">
    <rdf:RDF>
      <cc:Work
         rdf:about="">
        <dc:format>image/svg+xml</dc:format>
        <dc:type
           rdf:resource="http://purl.org/dc/dcmitype/StillImage" />
        <dc:title></dc:title>
      </cc:Work>
    </rdf:RDF>
  </metadata>
  <g
     inkscape:label="Layer 1"
     inkscape:groupmode="layer"
     id="layer1"
     transform="translate(-18.314403,-91.748265)">
    <g
       id="g918"
       style="fill:none;fill-rule:evenodd;stroke:none;stroke-width:1"
       transform="matrix(0.26458333,0,0,0.26458333,9.8477367,87.765227)">
      <g
         id="Mask" />
      <g
         id="Avataaar"
         stroke-width="1"
         fill-rule="evenodd"
         mask="url(#react-mask-5)">
        <g
           id="Body"
           transform="translate(32,36)">
          <mask
             id="react-mask-6"
             fill="#ffffff">
            <use
               xlink:href="#react-path-3"
               id="use841"
               x="0"
               y="0"
               width="100%"
               height="100%" />
          </mask>
          <use
             fill="#d0c6ac"
             xlink:href="#react-path-3"
             id="use844"
             x="0"
             y="0"
             width="100%"
             height="100%" />
          <g
             id="Skin/ðŸ‘¶ðŸ½-03-Brown"
             mask="url(#react-mask-6)"
             fill="#edb98a">
            <g
               id="Color">
              <rect
                 x="0"
                 y="0"
                 width="264"
                 height="280"
                 id="rect846" />
            </g>
          </g>
          <path
             d="m 156,79 v 23 c 0,30.92795 -25.07205,56 -56,56 -30.927946,0 -56,-25.07205 -56,-56 V 79 94 c 0,30.92795 25.072054,56 56,56 30.92795,0 56,-25.07205 56,-56 z"
             id="Neck-Shadow"
             fill-opacity="0.1"
             fill="#000000"
             mask="url(#react-mask-6)" />
        </g>
        <g
           id="Clothing/Collar-+-Sweater"
           transform="translate(0,170)">
          <defs
             id="defs853">
            <path
               d="M 105.1924,29.051724 H 104 v 0 c -39.764502,0 -72,32.235497 -72,71.999996 V 110 h 200 v -8.94828 C 232,61.287221 199.7645,29.051724 160,29.051724 v 0 h -1.1924 c 0.12704,0.98359 0.1924,1.984727 0.1924,3 0,13.807118 -12.08831,25 -27,25 -14.91169,0 -27,-11.192882 -27,-25 0,-1.015273 0.0654,-2.01641 0.1924,-3 z"
               id="path1063" />
          </defs>
          <mask
             id="react-mask-912"
             fill="#ffffff">
            <use
               xlink:href="#react-path-911"
               id="use855"
               x="0"
               y="0"
               width="100%"
               height="100%" />
          </mask>
          <use
             id="Clothes"
             fill="#e6e6e6"
             fill-rule="evenodd"
             xlink:href="#react-path-911"
             x="0"
             y="0"
             width="100%"
             height="100%" />
          <g
             id="Color/Palette/Gray-01"
             mask="url(#react-mask-912)"
             fill-rule="evenodd"
             fill="#3c4f5c">
            <rect
               id="ðŸ–Color"
               x="0"
               y="0"
               width="264"
               height="110" />
          </g>
          <path
             d="m 156,22.279491 c 6.18165,4.555695 10,10.826236 10,17.748424 0,7.205579 -4.1374,13.705062 -10.771,18.299252 L 149.57933,53.876493 145,54.207887 l 1,-3.151105 -0.0778,-0.06127 C 152.02249,47.853051 156,42.700358 156,36.87681 Z m -48,-0.707992 c -6.76725,4.602509 -11,11.168278 -11,18.456416 0,7.39824 4.3616,14.05212 11.30843,18.663657 l 6.11224,-4.815079 4.57933,0.331394 -1,-3.151105 0.0778,-0.06127 C 111.97751,47.853051 108,42.700358 108,36.87681 Z"
             id="Collar"
             fill="#f2f2f2"
             fill-rule="evenodd" />
        </g>
        <g
           id="Face"
           transform="translate(76,82)"
           fill="#000000">
          <g
             id="Mouth/Smile"
             transform="translate(2,52)">
            <defs
               id="defs864">
              <path
                 d="M 35.117844,15.128077 C 36.175712,24.619802 44.225987,32 54,32 63.804206,32 71.874008,24.574136 72.891759,15.040055 72.973669,14.272746 72.116743,13 71.042767,13 c -14.894013,0 -26.304846,0 -33.955943,0 -1.080207,0 -2.074818,1.178444 -1.96898,2.128077 z"
                 id="path1073" />
            </defs>
            <mask
               id="react-mask-852"
               fill="#ffffff">
              <use
                 xlink:href="#react-path-851"
                 id="use866"
                 x="0"
                 y="0"
                 width="100%"
                 height="100%" />
            </mask>
            <use
               id="Mouth"
               fill-opacity="0.7"
               fill="#000000"
               fill-rule="evenodd"
               xlink:href="#react-path-851"
               x="0"
               y="0"
               width="100%"
               height="100%" />
            <rect
               id="Teeth"
               fill="#ffffff"
               fill-rule="evenodd"
               mask="url(#react-mask-852)"
               x="39"
               y="2"
               width="31"
               height="16"
               rx="5" />
            <g
               id="Tongue"
               stroke-width="1"
               fill-rule="evenodd"
               mask="url(#react-mask-852)"
               fill="#ff4f6d">
              <g
                 transform="translate(38,24)"
                 id="g875">
                <circle
                   cx="11"
                   cy="11"
                   r="11"
                   id="circle871" />
                <circle
                   cx="21"
                   cy="11"
                   r="11"
                   id="circle873" />
              </g>
            </g>
          </g>
          <g
             id="Nose/Default"
             transform="translate(28,40)"
             fill-opacity="0.16">
            <path
               d="m 16,8 c 0,4.418278 5.372583,8 12,8 v 0 c 6.627417,0 12,-3.581722 12,-8"
               id="Nose" />
          </g>
          <g
             id="Eyes/Happy-ðŸ˜"
             transform="translate(0,8)"
             fill-opacity="0.6">
            <path
               d="M 16.160167,22.447312 C 18.006676,18.648508 22.164422,16 26.99758,16 c 4.816097,0 8.961542,2.629842 10.817772,6.407124 0.551408,1.122074 -0.233248,2.040358 -1.024745,1.359899 -2.451101,-2.10724 -5.931891,-3.423235 -9.793027,-3.423235 -3.740374,0 -7.123822,1.234964 -9.560041,3.227853 -0.890746,0.728653 -1.817438,-0.01326 -1.277372,-1.124329 z"
               id="Squint" />
            <path
               d="M 74.160167,22.447312 C 76.006676,18.648508 80.164422,16 84.99758,16 c 4.816097,0 8.961542,2.629842 10.817772,6.407124 0.551408,1.122074 -0.233248,2.040358 -1.024745,1.359899 -2.451101,-2.10724 -5.931891,-3.423235 -9.793027,-3.423235 -3.740374,0 -7.123822,1.234964 -9.560041,3.227853 -0.890746,0.728653 -1.817438,-0.01326 -1.277372,-1.124329 z"
               id="path882" />
          </g>
          <g
             id="Eyebrow/Natural/Default-Natural"
             fill-opacity="0.6">
            <path
               d="M 26.039093,6.2101236 C 20.277555,6.9834622 11.292931,12.005248 12.04426,17.817811 c 0.02469,0.190243 0.31247,0.249536 0.436648,0.09068 2.486496,-3.188159 21.711889,-7.871946 28.713359,-6.893779 0.640785,0.08973 1.063799,-0.571681 0.626783,-0.984508 C 38.076566,6.4948543 31.200379,5.5122482 26.039093,6.2101236"
               id="Eyebrow"
               transform="rotate(5,27,12)" />
            <path
               d="M 85.039093,6.2101236 C 79.277555,6.9834622 70.292931,12.005248 71.04426,17.817811 c 0.02469,0.190243 0.31247,0.249536 0.436648,0.09068 2.486496,-3.188159 21.711889,-7.871946 28.713362,-6.893779 0.64078,0.08973 1.0638,-0.571681 0.62678,-0.984508 C 97.076566,6.4948543 90.200379,5.5122482 85.039093,6.2101236"
               id="path886"
               transform="matrix(-0.9961947,0.08715574,0.08715574,0.9961947,170.62688,-7.4497303)" />
          </g>
        </g>
        <g
           id="Top"
           stroke-width="1"
           fill-rule="evenodd">
          <defs
             id="defs893">
            <rect
               id="rect1094"
               x="0"
               y="0"
               width="264"
               height="280" />
            <path
               d="M 21,157.54081 V 69.046252 C 21,65.514048 21.398116,62.07483 22.151923,58.77102 25.205041,38.731419 36.775268,22.810886 50,13 69.904644,-1.7596171 103.44194,-6.0182825 115.04707,11.522105 123.69834,7.6810354 136.51905,11.182111 146,20 c 9.56516,9.415044 17.19967,30.197377 12.65741,47.203517 0.10469,1.265679 0.15807,2.545519 0.15807,3.837379 V 92.89212 C 157.93414,87.918301 153.98899,84.002912 149,83.165917 V 83 C 142.96385,61.464209 125.22952,51.580047 114.42968,41.777113 97.535357,60.673258 44.822641,60.739807 27,98 v 10 c 0,6.01863 4.430871,11.00236 10.208581,11.86719 C 38.951807,140.11479 51.469218,157.28298 69,165.61095 V 166 c 2.930371,43.85511 -6.641538,98.79743 -69,82 13.605733,-7.96225 20.808112,-58.94444 21,-90.45919 z m 96,8.07014 c 17.53078,-8.32797 30.04819,-25.49616 31.79142,-45.74376 5.08734,-0.76149 9.13047,-4.71637 10.02406,-9.75931 v 1.36251 0 c 0,15.82816 3.75723,31.43025 10.96272,45.52322 l 26.94847,52.70757 c 6.96309,13.61887 4.91889,29.47239 -3.93596,40.76779 C 189.96621,213.28881 158.90349,184 121,184 v 0 h -4 z"
               id="path1096" />
            <path
               d="m 65.180219,77.737299 c 2.182966,-1.632766 15.226292,-2.258648 17.57761,-3.64785 0.733817,-0.434063 1.303243,-0.87373 1.741949,-1.309442 0.439036,0.435712 1.008792,0.875379 1.742609,1.309442 2.350988,1.389202 15.394313,2.015084 17.577283,3.64785 2.21036,1.653529 3.8239,5.447384 3.6473,8.413651 -0.21193,3.559191 -4.10548,12.051943 -13.794643,13.030152 -2.114634,-2.352909 -5.435462,-3.870649 -9.172549,-3.870649 -3.736426,0 -7.057584,1.51774 -9.172219,3.870649 C 65.638731,98.202893 61.745176,89.710141 61.53325,86.15095 c -0.176605,-2.966267 1.436935,-6.760122 3.646969,-8.413651 m 37.961421,17.169082 c 0.001,-6.59e-4 0.003,-0.0013 0.004,-0.0016 -0.002,3.3e-4 -0.003,9.89e-4 -0.004,0.0016 m -37.296265,-0.0049 c 0.004,0.0016 0.01122,0.0043 0.0165,0.0063 -0.0053,-0.002 -0.01089,-0.0043 -0.0165,-0.0063 M 144.86259,55.985334 c -0.3882,-5.954946 -1.58482,-11.833428 -2.6286,-17.699056 C 141.95274,36.707235 140.42371,26 139.73478,26 c -0.23239,9.109406 -1.03289,18.080386 -2.06512,27.139365 -0.30864,2.708202 -0.63181,5.417063 -0.8444,8.134822 -0.17165,2.195368 0.13435,4.847869 -0.39744,6.971387 -0.67869,2.706883 -4.07973,5.232824 -6.72484,6.165221 -6.60007,2.326542 -12.10518,-7.303026 -17.742,-10.119661 C 104.64327,60.634715 92.063739,59.763989 84.581643,64.529792 76.936147,59.763989 64.356614,60.634715 57.038909,64.291134 51.402415,67.107769 45.896971,76.737337 39.297238,74.410795 36.65213,73.478398 33.250427,70.952457 32.572397,68.245574 32.040272,66.122056 32.346277,63.469555 32.174954,61.274187 31.962368,58.556428 31.638868,55.847567 31.330223,53.139365 30.298323,44.080386 29.497495,35.109406 29.265433,26 28.57618,26 27.046817,36.707235 26.7659,38.286278 c -1.043783,5.865628 -2.240073,11.74411 -2.628274,17.699056 -0.399093,6.119408 0.07724,12.182128 1.331963,18.177942 0.599135,2.864426 1.298952,5.712371 2.049274,8.540872 0.833838,3.142595 -0.319869,9.262004 0.05348,12.487984 0.706419,6.103588 3.581939,18.007548 6.810999,23.258828 1.560722,2.53814 3.390149,4.12278 5.433151,6.16819 1.966089,1.96894 2.787383,5.0209 4.909609,7.11772 3.955945,3.90822 9.719529,6.23443 15.639581,6.80626 5.31167,4.50708 14.139922,7.45687 24.134095,7.45687 9.994833,0 18.822752,-2.94979 24.134762,-7.45687 5.91939,-0.57183 11.6833,-2.89804 15.63958,-6.80626 2.1219,-2.09682 2.94319,-5.14878 4.90961,-7.11772 2.04267,-2.04541 3.8721,-3.63005 5.43315,-6.16819 3.22873,-5.25128 6.10458,-17.15524 6.81067,-23.258828 0.37334,-3.22598 -0.78037,-9.345389 0.0538,-12.487984 0.75033,-2.828501 1.44981,-5.676446 2.04928,-8.540872 1.25406,-5.995814 1.73072,-12.058534 1.33196,-18.177942 z"
               id="path1098" />
          </defs>
          <mask
             id="react-mask-629"
             fill="#ffffff">
            <use
               xlink:href="#react-path-631"
               id="use895"
               x="0"
               y="0"
               width="100%"
               height="100%" />
          </mask>
          <g
             id="g898" />
          <g
             id="Top/Long-Hair/Straight"
             mask="url(#react-mask-629)">
            <g
               transform="translate(-1)"
               id="g913">
              <g
                 id="Hair"
                 stroke-width="1"
                 fill="none"
                 fill-rule="evenodd"
                 transform="translate(40,15)">
                <mask
                   id="react-mask-630"
                   fill="#ffffff">
                  <use
                     xlink:href="#react-path-632"
                     id="use900"
                     x="0"
                     y="0"
                     width="100%"
                     height="100%" />
                </mask>
                <use
                   fill="#272c2e"
                   xlink:href="#react-path-632"
                   id="use903"
                   x="0"
                   y="0"
                   width="100%"
                   height="100%" />
                <g
                   id="g909"
                   mask="url(#react-mask-630)"
                   fill="#2c1b18">
                  <g
                     id="g907">
                    <rect
                       x="0"
                       y="0"
                       width="264"
                       height="280"
                       id="rect905" />
                  </g>
                </g>
              </g>
              <path
                 d="m 67,113 c 17.822641,-32.335333 70.53536,-32.393085 87.42968,-48.791635 10.77787,8.489927 28.46205,15.058187 34.53334,33.660351 C 182.89173,76.423995 165.20755,66.560105 154.42968,56.777113 137.53536,75.673258 84.822641,75.739807 67,113 Z"
                 id="Shadow"
                 fill-opacity="0.16"
                 fill="#000000"
                 fill-rule="evenodd" />
            </g>
          </g>
        </g>
      </g>
    </g>
  </g>
</svg>
