<?xml version="1.0" encoding="UTF-8" standalone="no"?>
<svg
   xmlns:dc="http://purl.org/dc/elements/1.1/"
   xmlns:cc="http://creativecommons.org/ns#"
   xmlns:rdf="http://www.w3.org/1999/02/22-rdf-syntax-ns#"
   xmlns:svg="http://www.w3.org/2000/svg"
   xmlns="http://www.w3.org/2000/svg"
   xmlns:xlink="http://www.w3.org/1999/xlink"
   xmlns:sodipodi="http://sodipodi.sourceforge.net/DTD/sodipodi-0.dtd"
   xmlns:inkscape="http://www.inkscape.org/namespaces/inkscape"
   width="264px"
   height="280px"
   viewBox="0 0 264 280"
   version="1.1"
   id="svg86"
   sodipodi:docname="avataaars.svg"
   inkscape:version="1.0.1 (3bc2e813f5, 2020-09-07)">
  <metadata
     id="metadata90">
    <rdf:RDF>
      <cc:Work
         rdf:about="">
        <dc:format>image/svg+xml</dc:format>
        <dc:type
           rdf:resource="http://purl.org/dc/dcmitype/StillImage" />
      </cc:Work>
    </rdf:RDF>
  </metadata>
  <sodipodi:namedview
     pagecolor="#ffffff"
     bordercolor="#666666"
     borderopacity="1"
     objecttolerance="10"
     gridtolerance="10"
     guidetolerance="10"
     inkscape:pageopacity="0"
     inkscape:pageshadow="2"
     inkscape:window-width="1920"
     inkscape:window-height="1017"
     id="namedview88"
     showgrid="false"
     inkscape:snap-page="false"
     inkscape:zoom="1.0960155"
     inkscape:cx="129.63447"
     inkscape:cy="145.31378"
     inkscape:window-x="-8"
     inkscape:window-y="-8"
     inkscape:window-maximized="1"
     inkscape:current-layer="Top/Long-Hair/Big-Hair" />
  <desc
     id="desc2">Created with getavataaars.com</desc>
  <defs
     id="defs7">
    <circle
       id="path-1"
       cx="120"
       cy="120"
       r="120" />
    <path
       d="M12,160 C12,226.27417 65.72583,280 132,280 C198.27417,280 252,226.27417 252,160 L264,160 L264,-1.42108547e-14 L-3.19744231e-14,-1.42108547e-14 L-3.19744231e-14,160 L12,160 Z"
       id="path-3" />
    <path
       d="M124,144.610951 L124,163 L128,163 L128,163 C167.764502,163 200,195.235498 200,235 L200,244 L0,244 L0,235 C-4.86974701e-15,195.235498 32.235498,163 72,163 L72,163 L76,163 L76,144.610951 C58.7626345,136.422372 46.3722246,119.687011 44.3051388,99.8812385 C38.4803105,99.0577866 34,94.0521096 34,88 L34,74 C34,68.0540074 38.3245733,63.1180731 44,62.1659169 L44,56 L44,56 C44,25.072054 69.072054,5.68137151e-15 100,0 L100,0 L100,0 C130.927946,-5.68137151e-15 156,25.072054 156,56 L156,62.1659169 C161.675427,63.1180731 166,68.0540074 166,74 L166,88 C166,94.0521096 161.51969,99.0577866 155.694861,99.8812385 C153.627775,119.687011 141.237365,136.422372 124,144.610951 Z"
       id="path-5" />
  </defs>
  <g
     id="g84"
     stroke="none"
     stroke-width="1"
     fill="none"
     fill-rule="evenodd"
     data-darkreader-inline-fill=""
     data-darkreader-inline-stroke=""
     style="--darkreader-inline-fill:none; --darkreader-inline-stroke:none;">
    <g
       transform="translate(-825.000000, -1100.000000)"
       id="Avataaar/Circle">
      <g
         transform="translate(825.000000, 1100.000000)"
         id="g81">
        <g
           id="Mask" />
        <g
           id="Avataaar"
           stroke-width="1"
           fill-rule="evenodd"
           mask="url(#mask-4)">
          <g
             id="Body"
             transform="translate(32.000000, 36.000000)">
            <mask
               id="mask-6"
               fill="white"
               data-darkreader-inline-fill=""
               style="--darkreader-inline-fill:#e8e6e3;">
              <use
                 xlink:href="#path-5"
                 id="use10" />
            </mask>
            <use
               fill="#D0C6AC"
               xlink:href="#path-5"
               data-darkreader-inline-fill=""
               style="--darkreader-inline-fill:#52482f;"
               id="use13" />
            <g
               id="Skin/ðŸ‘¶ðŸ½-03-Brown"
               mask="url(#mask-6)"
               fill="#D08B5B">
              <g
                 transform="translate(-32.000000, 0.000000)"
                 id="Color">
                <rect
                   x="0"
                   y="0"
                   width="264"
                   height="244"
                   id="rect15" />
              </g>
            </g>
            <path
               d="M156,79 L156,102 C156,132.927946 130.927946,158 100,158 C69.072054,158 44,132.927946 44,102 L44,79 L44,94 C44,124.927946 69.072054,150 100,150 C130.927946,150 156,124.927946 156,94 L156,79 Z"
               id="Neck-Shadow"
               fill-opacity="0.100000001"
               fill="#000000"
               mask="url(#mask-6)"
               data-darkreader-inline-fill=""
               style="--darkreader-inline-fill:#000000;" />
          </g>
          <g
             id="Clothing/Hoodie"
             transform="translate(0.000000, 170.000000)">
            <defs
               id="defs22">
              <path
                 d="M108,13.0708856 C90.0813006,15.075938 76.2798424,20.5518341 76.004203,34.6449676 C50.1464329,45.5680933 32,71.1646257 32,100.999485 L32,100.999485 L32,110 L232,110 L232,100.999485 C232,71.1646257 213.853567,45.5680933 187.995797,34.6449832 C187.720158,20.5518341 173.918699,15.075938 156,13.0708856 L156,32 L156,32 C156,45.254834 145.254834,56 132,56 L132,56 C118.745166,56 108,45.254834 108,32 L108,13.0708856 Z"
                 id="react-path-570" />
            </defs>
            <mask
               id="react-mask-571"
               fill="white">
              <use
                 xlink:href="#react-path-570"
                 id="use24" />
            </mask>
            <use
               id="Hoodie"
               fill="#B7C1DB"
               fill-rule="evenodd"
               xlink:href="#react-path-570" />
            <g
               id="Color/Palette/Gray-01"
               mask="url(#react-mask-571)"
               fill-rule="evenodd"
               fill="#262E33">
              <rect
                 id="ðŸ–Color"
                 x="0"
                 y="0"
                 width="264"
                 height="110" />
            </g>
            <path
               d="M102,61.7390531 L102,110 L95,110 L95,58.1502625 C97.2037542,59.4600576 99.5467694,60.6607878 102,61.7390531 Z M169,58.1502625 L169,98.5 C169,100.432997 167.432997,102 165.5,102 C163.567003,102 162,100.432997 162,98.5 L162,61.7390531 C164.453231,60.6607878 166.796246,59.4600576 169,58.1502625 Z"
               id="Straps"
               fill="#F4F4F4"
               fill-rule="evenodd"
               mask="url(#react-mask-571)" />
            <path
               d="M90.9601329,12.7243537 C75.9093095,15.5711782 65.5,21.2428847 65.5,32.3076923 C65.5,52.0200095 98.5376807,68 132,68 C165.462319,68 198.5,52.0200095 198.5,32.3076923 C198.5,21.2428847 188.09069,15.5711782 173.039867,12.7243537 C182.124921,16.0744598 188,21.7060546 188,31.0769231 C188,51.4689754 160.178795,68 132,68 C103.821205,68 76,51.4689754 76,31.0769231 C76,21.7060546 81.8750795,16.0744598 90.9601329,12.7243537 Z"
               id="Shadow"
               fill-opacity="0.16"
               fill="#000000"
               fill-rule="evenodd"
               mask="url(#react-mask-571)" />
          </g>
          <g
             id="Face"
             transform="translate(76.000000, 82.000000)"
             fill="#000000"
             data-darkreader-inline-fill=""
             style="--darkreader-inline-fill:#000000;">
            <g
               id="Mouth/Twinkle"
               transform="translate(2.000000, 52.000000)"
               fill-opacity="0.599999964"
               fill-rule="nonzero"
               fill="#000000">
              <path
                 d="M40,16 C40,21.371763 46.1581544,25 54,25 C61.8418456,25 68,21.371763 68,16 C68,14.8954305 67.050301,14 66,14 C64.7072748,14 64.1302316,14.9051755 64,16 C62.7575758,18.9378973 59.6832595,20.7163149 54,21 C48.3167405,20.7163149 45.2424242,18.9378973 44,16 C43.8697684,14.9051755 43.2927252,14 42,14 C40.949699,14 40,14.8954305 40,16 Z"
                 id="Mouth" />
            </g>
            <g
               id="Nose/Default"
               transform="translate(28.000000, 40.000000)"
               fill-opacity="0.16">
              <path
                 d="M16,8 C16,12.418278 21.372583,16 28,16 L28,16 C34.627417,16 40,12.418278 40,8"
                 id="Nose" />
            </g>
            <g
               id="Eyes/Happy-ðŸ˜"
               transform="translate(0.000000, 8.000000)"
               fill-opacity="0.599999964">
              <path
                 d="M16.1601674,22.4473116 C18.006676,18.648508 22.1644225,16 26.9975803,16 C31.8136766,16 35.9591217,18.629842 37.8153518,22.4071242 C38.3667605,23.5291977 37.5821037,24.4474817 36.790607,23.7670228 C34.3395063,21.6597833 30.8587163,20.3437884 26.9975803,20.3437884 C23.2572061,20.3437884 19.8737584,21.5787519 17.4375392,23.5716412 C16.5467928,24.3002944 15.6201012,23.5583844 16.1601674,22.4473116 Z"
                 id="Squint" />
              <path
                 d="M74.1601674,22.4473116 C76.006676,18.648508 80.1644225,16 84.9975803,16 C89.8136766,16 93.9591217,18.629842 95.8153518,22.4071242 C96.3667605,23.5291977 95.5821037,24.4474817 94.790607,23.7670228 C92.3395063,21.6597833 88.8587163,20.3437884 84.9975803,20.3437884 C81.2572061,20.3437884 77.8737584,21.5787519 75.4375392,23.5716412 C74.5467928,24.3002944 73.6201012,23.5583844 74.1601674,22.4473116 Z"
                 id="path38" />
            </g>
            <g
               id="Eyebrow/Natural/Default-Natural"
               fill-opacity="0.599999964">
              <path
                 d="M26.0390934,6.21012364 C20.2775554,6.98346216 11.2929313,12.0052479 12.04426,17.8178111 C12.0689481,18.0080543 12.3567302,18.0673468 12.4809077,17.9084937 C14.9674041,14.7203351 34.1927973,10.0365481 41.1942673,11.0147151 C41.8350523,11.1044465 42.2580662,10.4430343 41.8210501,10.0302067 C38.0765663,6.49485426 31.2003792,5.51224825 26.0390934,6.21012364"
                 id="Eyebrow"
                 transform="translate(27.000000, 12.000000) rotate(5.000000) translate(-27.000000, -12.000000) " />
              <path
                 d="M85.0390934,6.21012364 C79.2775554,6.98346216 70.2929313,12.0052479 71.04426,17.8178111 C71.0689481,18.0080543 71.3567302,18.0673468 71.4809077,17.9084937 C73.9674041,14.7203351 93.1927973,10.0365481 100.194267,11.0147151 C100.835052,11.1044465 101.258066,10.4430343 100.82105,10.0302067 C97.0765663,6.49485426 90.2003792,5.51224825 85.0390934,6.21012364"
                 id="path42"
                 transform="translate(86.000000, 12.000000) scale(-1, 1) rotate(5.000000) translate(-86.000000, -12.000000) " />
            </g>
          </g>
          <g
             id="Top"
             stroke-width="1"
             fill-rule="evenodd">
            <defs
               id="defs49">
              <rect
                 id="react-path-523"
                 x="0"
                 y="0"
                 width="264"
                 height="280" />
              <path
                 d="M222.384814,182.806274 C217.011239,188.518122 211.648364,192.127879 211.831204,198 C212.148076,209.888877 255.439069,245.051165 216.999964,267.00001 L16.0053198,267 C-22.4337677,245.051165 20.8572256,209.888877 21.1740982,198 C21.3569373,192.127879 15.9940628,188.518122 10.6204878,182.806274 C5.24691269,177.094426 -0.137362978,169.280486 0.00267373922,155 C0.944497502,125.971596 31.3716806,128.588232 31.2026676,109 C31.3716806,89.9992744 19.8139454,82.1607482 31.2026676,46 C42.8395963,9.53932757 72.9165934,0.768171773 116.002651,0.0159928999 L116.002651,0 C116.16951,0.002426813 116.336177,0.0049705256 116.502651,0.0076322645 C116.669125,0.0049705256 116.835791,0.002426813 117.002651,0 L117.002651,0.0159928999 C160.088708,0.768171773 190.165705,9.53932757 201.802634,46 C213.191356,82.1607482 201.633621,89.9992744 201.802634,109 C201.633621,128.588232 232.060804,125.971596 233.002628,155 C233.142665,169.280486 227.758389,177.094426 222.384814,182.806274 Z M182.884023,95.3249541 C161.364085,83.7373848 142.890027,67.1442914 130.845581,48.302359 C112.763849,73.9237118 76.5299076,78.5347548 51.2240944,94.679971 C51.0770557,95.4306015 51,96.2063021 51,97 L51,110 C51,116.018625 55.4308707,121.002364 61.2085808,121.867187 C62.9518066,142.114792 75.4692178,159.282984 93,167.610951 L93,186 L89,186 L89,186 C49.235498,186 17,218.235498 17,258 L17,267 L217,267 L217,258 C217,218.235498 184.764502,186 145,186 L141,186 L141,167.610951 C158.530782,159.282984 171.048193,142.114792 172.791419,121.867187 C178.569129,121.002364 183,116.018625 183,110 L183,97 C183,96.4315537 182.960475,95.8723389 182.884023,95.3249541 Z"
                 id="react-path-524" />
              <path
                 d="M222.384814,182.806274 C217.011239,188.518122 211.648364,192.127879 211.831204,198 C212.148076,209.888877 255.439069,245.051165 216.999964,267.00001 L16.0053198,267 C-22.4337677,245.051165 20.8572256,209.888877 21.1740982,198 C21.3569373,192.127879 15.9940628,188.518122 10.6204878,182.806274 C5.24691269,177.094426 -0.137362978,169.280486 0.00267373922,155 C0.944497502,125.971596 31.3716806,128.588232 31.2026676,109 C31.3716806,89.9992744 19.8139454,82.1607482 31.2026676,46 C42.8395963,9.53932757 72.9165934,0.768171773 116.002651,0.0159928999 L116.002651,0 C116.16951,0.002426813 116.336177,0.0049705256 116.502651,0.0076322645 C116.669125,0.0049705256 116.835791,0.002426813 117.002651,0 L117.002651,0.0159928999 C160.088708,0.768171773 190.165705,9.53932757 201.802634,46 C213.191356,82.1607482 201.633621,89.9992744 201.802634,109 C201.633621,128.588232 232.060804,125.971596 233.002628,155 C233.142665,169.280486 227.758389,177.094426 222.384814,182.806274 Z M93,186 L89,186 L89,186 C49.235498,186 17,218.235498 17,258 L17,267 L217,267 L217,258 C217,218.235498 184.764502,186 145,186 L141,186 L141,140 L93,140 L93,186 Z"
                 id="react-path-525" />
            </defs>
            <mask
               id="react-mask-521"
               fill="white"
               data-darkreader-inline-fill=""
               style="--darkreader-inline-fill:#e8e6e3;">
              <use
                 xlink:href="#react-path-523"
                 id="use51" />
            </mask>
            <g
               id="g54" />
            <g
               id="Top/Long-Hair/Big-Hair"
               mask="url(#react-mask-521)">
              <g
                 transform="translate(-1.000000, 0.000000)"
                 id="g76">
                <g
                   id="Hair"
                   stroke-width="1"
                   fill="none"
                   fill-rule="evenodd"
                   transform="translate(16.000000, 13.000000)"
                   data-darkreader-inline-fill=""
                   style="--darkreader-inline-fill:none;">
                  <mask
                     id="react-mask-522"
                     fill="white"
                     data-darkreader-inline-fill=""
                     style="--darkreader-inline-fill:#e8e6e3;">
                    <use
                       xlink:href="#react-path-524"
                       id="use56" />
                  </mask>
                  <use
                     fill="#314756"
                     xlink:href="#react-path-524"
                     data-darkreader-inline-fill=""
                     style="--darkreader-inline-fill:#273945;"
                     id="use59" />
                  <g
                     id="g65"
                     mask="url(#react-mask-522)"
                     fill="#4A312C"
                     data-darkreader-inline-fill=""
                     style="--darkreader-inline-fill:#3b2723;">
                    <g
                       transform="translate(0.000000, 0.000000) "
                       id="g63">
                      <rect
                         x="0"
                         y="0"
                         width="264"
                         height="280"
                         id="rect61" />
                      <rect
                         x="0"
                         y="0"
                         width="264"
                         height="280"
                         id="rect917" />
                    </g>
                  </g>
                </g>
                <g
                   id="g73"
                   stroke-width="1"
                   fill="none"
                   fill-rule="evenodd"
                   transform="translate(16.000000, 13.000000)"
                   data-darkreader-inline-fill=""
                   style="--darkreader-inline-fill:none;">
                  <mask
                     id="react-mask-520"
                     fill="white"
                     data-darkreader-inline-fill=""
                     style="--darkreader-inline-fill:#e8e6e3;">
                    <use
                       xlink:href="#react-path-525"
                       id="use68" />
                  </mask>
                  <g
                     id="Shape" />
                  <path
                     d="M30.0988695,115.056827 C27.7250732,118.08281 24.5296181,122.528485 24.3618393,122.19381 C26.2345006,119.810609 27.3747977,117.011661 27.3409475,113.436088 C27.517612,95.334874 15.4366324,87.8674306 27.3409475,53.4185647 C28.0096512,51.5090274 29.1070085,49.7044671 30.585889,48.0048838 C20.2433352,82.4586863 31.3685109,90.3556196 31.2026676,109 C31.2224682,111.294844 30.8223327,113.284923 30.0988695,115.056827 Z M202.419413,48.0048838 C203.898293,49.7044671 204.995651,51.5090274 205.664354,53.4185647 C215.822041,82.8130155 208.516445,92.5627534 206.263744,106.036479 C205.964379,106.841192 206.195125,107.789747 205.880216,108.603009 C175.207016,98.1454461 147.589972,78.5596292 131.494917,55.6119279 C108.710969,85.0357527 58.3544031,85.3732378 33.6737341,110.936101 C34.0607045,110.391798 34.4280855,109.884956 34.7584999,109.446288 C57.2940449,79.527377 108.24688,80.3241416 130.845581,48.302359 C146.243536,72.3904102 172.664446,92.9495135 202.009146,103.926748 C202.310417,103.073073 202.089664,102.077381 202.376063,101.232679 C204.483829,87.4002546 211.215481,77.3069293 202.419413,48.0048838 Z"
                     id="Shadow-Mask"
                     fill-opacity="0.16"
                     fill="#000000"
                     mask="url(#react-mask-520)"
                     data-darkreader-inline-fill=""
                     style="--darkreader-inline-fill:#000000;" />
                </g>
                <path
                   d="M50.7584999,122.446288 C73.2940449,92.527377 124.24688,93.3241416 146.845581,61.302359 C162.243536,85.3904102 188.664446,105.949514 218.009146,116.926748 C218.310417,116.073073 218.089664,115.077381 218.376063,114.232679 C220.531197,100.089398 227.520377,89.8551619 217.802634,59 C206.165705,22.5393276 176.088708,13.7681718 133.002651,13.0159929 C132.336177,13.0049705 132.16951,13.0024268 132.002651,13 C88.9165934,13.7681718 58.8395963,22.5393276 47.2026676,59 C35.8139454,95.1607482 47.3716806,102.999274 47.2026676,122 C47.2350518,125.753256 46.1441426,128.691293 44.3525888,131.192923 C44.5361111,131.59459 48.5061717,125.436551 50.7584999,122.446288 Z"
                   id="Light"
                   fill-opacity="0.1"
                   fill="#FFFFFF"
                   fill-rule="evenodd"
                   data-darkreader-inline-fill=""
                   style="--darkreader-inline-fill:#181a1b;" />
              </g>
              <path
                 style="fill:#321313;fill-opacity:1;stroke-width:0.912396"
                 d="m 232.02513,268.72284 c -0.61064,-12.97338 -2.14102,-19.10968 -7.45409,-29.88848 -11.55215,-23.43624 -33.40801,-37.83741 -60.94983,-40.1608 l -7.07107,-0.59651 v -8.51165 -8.51166 l 4.69277,-2.88749 c 13.44332,-8.27176 22.62951,-21.42383 25.81383,-36.95825 0.82173,-4.00872 1.64987,-5.74033 3.09322,-6.46777 6.03353,-3.04086 8.37039,-7.449 8.37039,-15.78948 v -6.38094 l 8.10693,3.59845 c 4.45881,1.97914 8.51235,3.59844 9.00787,3.59844 0.49553,0 1.09317,2.00043 1.3281,4.44541 0.5708,5.94042 2.87191,8.90189 12.37173,15.92204 4.37921,3.23614 9.27554,7.2651 10.88074,8.95325 8.22105,8.64584 9.68169,24.18203 3.4692,36.90028 -1.24504,2.54884 -5.55244,8.23462 -9.572,12.63505 -10.02989,10.98027 -10.01995,11.3057 0.87728,28.71475 9.72873,15.54228 12.06779,21.16819 12.17715,29.2886 0.12132,9.0082 -2.96297,14.00244 -13.6223,22.05791 -0.72467,0.54765 -1.15937,-2.30129 -1.51992,-9.96115 z"
                 id="path935" />
              <path
                 style="fill:#4f1e1e;fill-opacity:1;stroke-width:0.912396"
                 d="m 26.513519,276.47383 c -7.920802,-6.46463 -10.79973,-11.66803 -10.728908,-19.39156 0.08349,-9.10494 2.440387,-14.47346 15.182317,-34.58216 4.212272,-6.64761 5.146963,-8.84048 5.146963,-12.07525 0,-3.67189 -0.52141,-4.52046 -7.34271,-11.95002 -4.03849,-4.39861 -8.332313,-10.05035 -9.541828,-12.55944 -3.290244,-6.82548 -4.558121,-15.73839 -3.221906,-22.64933 1.888952,-9.76971 6.157509,-15.15495 19.481604,-24.5781 3.872986,-2.73908 7.801366,-6.61689 10.629386,-10.49256 3.980938,-5.45568 8.124778,-9.25134 15.517452,-14.21362 1.240748,-0.83284 2.575127,-1.51426 2.965287,-1.51426 0.39016,0 0.709382,2.68195 0.709382,5.95988 0,8.64882 3.196572,14.6272 8.711023,16.29177 1.485186,0.44832 2.08345,1.82136 2.918993,6.69923 2.268278,13.24211 12.51179,28.2474 24.415546,35.76531 l 5.92465,3.74175 v 8.57579 8.57579 l -7.07107,0.61586 c -9.323583,0.81204 -17.171631,2.6177 -24.170242,5.56102 -26.957651,11.33728 -44.487546,38.1175 -44.487546,67.96314 0,3.9704 -0.317031,7.2189 -0.704512,7.2189 -0.387482,0 -2.337728,-1.33296 -4.333881,-2.96214 z"
                 id="path939" />
              <path
                 style="fill:#533030;fill-opacity:1;stroke-width:0.912396"
                 d="M 46.17915,120.66881 C 46.16325,117.40134 45.078713,109.60036 43.769062,103.33329 40.877816,89.497829 41.143625,79.512897 44.776778,65.479147 52.336821,36.277029 69.286871,21.402476 101.39777,15.79128 c 10.35341,-1.8092 29.76603,-2.594704 42.83503,-1.73326 44.42946,2.92857 64.95064,17.202619 73.92593,51.421127 3.70344,14.119457 3.94483,24.005022 0.93659,38.355683 -1.36347,6.50429 -2.63051,11.97747 -2.81565,12.16262 -0.93407,0.93408 -17.12467,-7.49074 -33.16685,-17.258445 -1.19777,-0.729302 -3.44481,-2.455093 -4.99341,-3.835092 -1.54859,-1.379999 -3.1054,-2.509088 -3.45957,-2.509088 -1.37508,0 -19.05415,-18.125421 -23.58307,-24.17849 -2.62823,-3.512724 -4.85542,-6.477895 -4.94932,-6.589268 -0.0939,-0.111375 -3.43265,2.984232 -7.41945,6.879125 -9.09327,8.883631 -17.93316,14.080998 -38.65808,22.728816 C 68.273428,104.49428 57.567927,111.23697 48.230737,123.87248 l -2.022682,2.73719 z"
                 id="path941" />
              <path
                 style="fill:#533030;fill-opacity:1;stroke-width:0.912396"
                 d="m 46.150245,119.99698 c 0,-2.96753 -0.814921,-9.87878 -1.810936,-15.35833 C 41.174666,87.228425 42.207544,72.620018 47.674796,57.463522 57.252501,30.91189 77.675829,17.832971 114.38651,14.741927 c 31.68057,-2.667507 62.17505,2.289925 78.33536,12.734838 21.16751,13.681223 32.17293,46.303178 25.90244,76.779205 -1.08413,5.26909 -2.36112,9.97551 -2.83776,10.4587 -1.60345,1.62553 -27.01144,-12.11893 -38.78869,-20.982738 -6.87921,-5.177443 -21.03618,-19.593624 -27.08532,-27.58124 -4.16459,-5.499158 -3.01061,-5.80119 -13.07707,3.422682 -7.58383,6.949046 -16.95407,12.617139 -30.9233,18.705617 C 69.00661,104.36426 62.492041,108.04563 52.882943,118.24572 l -6.732698,7.14677 z"
                 id="path943" />
              <path
                 style="fill:#372020;fill-opacity:1;stroke-width:0.912396"
                 d="m 232.84925,274.75994 c -0.31364,-1.56818 -0.57335,-4.75016 -0.57714,-7.07106 -0.0275,-16.82446 -7.96759,-34.70724 -21.35462,-48.09506 -13.0236,-13.02436 -29.72269,-20.13467 -50.71776,-21.59514 l -3.19339,-0.22214 -0.26021,-8.27858 c -0.24695,-7.8569 -0.154,-8.32741 1.8248,-9.23727 4.70704,-2.16432 13.6702,-9.84337 17.67927,-15.14645 5.32561,-7.04455 8.86888,-14.39145 10.8608,-22.51968 1.34771,-5.49946 1.95788,-6.5493 4.96183,-8.53722 4.62091,-3.05798 6.44752,-7.2318 6.44752,-14.73266 0,-3.35325 0.35479,-5.95996 0.78843,-5.79268 15.22592,5.87333 16.5257,6.6261 17.067,9.88428 1.20787,7.27046 3.08535,9.62495 15.20684,19.07051 12.48423,9.72823 15.8588,16.2931 15.10133,29.37803 -0.52877,9.13413 -3.78315,15.87628 -12.61527,26.13521 -3.56202,4.13746 -6.80987,8.68542 -7.21746,10.10658 -1.03927,3.62374 0.54817,7.64117 7.57478,19.16988 9.95336,16.33072 11.99822,21.34162 11.97702,29.34959 -0.0126,4.74794 -0.50565,7.74514 -1.61054,9.78973 -1.53459,2.83972 -9.5853,11.19537 -10.7868,11.19537 -0.3224,0 -0.8428,-1.28306 -1.15643,-2.85124 z"
                 id="path945" />
              <path
                 style="fill:#281717;fill-opacity:1;stroke-width:0.912396"
                 d="m 24.4944,274.10819 c -5.540568,-5.31225 -7.462412,-8.79497 -8.175441,-14.81539 -0.900454,-7.60292 1.666927,-14.61315 11.21079,-30.61103 11.41643,-19.13675 11.411098,-18.66324 0.359016,-31.88394 -9.271611,-11.09087 -11.847583,-17.0127 -11.847583,-27.23606 0,-12.11851 4.298357,-19.14038 18.053854,-29.49306 3.776731,-2.84245 9.313655,-8.14936 12.304277,-11.79314 4.612172,-5.61947 11.065737,-11.40466 16.047967,-14.38593 1.832507,-1.09654 2.833273,1.10684 2.849306,6.27329 0.01885,6.07331 2.996767,12.08887 6.907655,13.95384 2.683904,1.27986 3.186301,2.1408 4.588708,7.86344 3.492168,14.2501 13.673041,28.79771 25.081591,35.83946 l 5.40623,3.33692 v 8.53808 8.53807 l -3.87769,0.007 c -2.13272,0.004 -6.546436,0.42791 -9.808251,0.94253 -29.506948,4.65542 -52.509474,25.57028 -59.820539,54.39136 -1.222309,4.81848 -2.222378,11.12037 -2.222378,14.00419 0,5.93902 -0.821715,10.94582 -1.796423,10.94582 -0.36076,0 -2.728251,-1.98693 -5.261089,-4.41539 z"
                 id="path947" />
              <path
                 style="fill:#452626;fill-opacity:1;stroke-width:0.912396"
                 d="m 46.148296,120.6791 c -0.0056,-2.76 -0.825862,-9.73983 -1.822842,-15.51073 -3.207289,-18.565016 -2.131706,-32.66424 3.713715,-48.681075 7.337779,-20.105993 21.95752,-32.605173 44.962627,-38.440897 22.854764,-5.797586 60.869464,-5.140687 82.304994,1.42224 16.17837,4.953336 29.5613,15.735802 36.16256,29.135732 8.47206,17.197485 11.00823,36.923871 7.15496,55.6516 -1.08413,5.26909 -2.35984,9.97423 -2.83492,10.45587 -1.58601,1.60791 -26.00872,-11.49905 -37.86507,-20.321079 -7.65584,-5.696532 -22.64705,-20.741816 -27.75654,-27.856654 -1.67802,-2.33659 -3.52282,-4.248345 -4.09957,-4.248345 -0.57675,0 -4.41956,3.047307 -8.5396,6.771792 C 128.15452,77.531701 119.99073,82.329649 100.894,90.588137 70.761365,103.61916 60.358193,109.77931 51.259849,119.97859 l -5.101402,5.71868 z"
                 id="path949" />
            </g>
          </g>
          <path
             style="fill:#e8ac84;fill-opacity:1;stroke-width:0.912396"
             d="m 117.5535,183.68211 c -15.01995,-4.06013 -28.35447,-15.26789 -35.381464,-29.7384 -2.719863,-5.60095 -3.790164,-9.15256 -5.567701,-18.4755 -0.219188,-1.14961 -0.723429,-1.8894 -1.120536,-1.64398 -1.451496,0.89708 -6.669341,-3.2346 -7.947155,-6.29284 -0.724585,-1.73417 -1.31369,-6.04792 -1.31369,-9.61955 v -6.47544 l 6.776544,-3.13095 c 3.727099,-1.72203 13.230445,-5.59581 21.118545,-8.608398 11.067887,-4.227001 15.457127,-5.477436 19.226737,-5.477436 4.59432,0 6.15079,-0.934632 3.88673,-2.333902 -0.55269,-0.341577 1.92997,-2.205565 5.56382,-4.177339 8.92164,-4.840993 13.62732,-8.175898 19.21181,-13.615364 l 4.72503,-4.602323 1.46844,2.100011 c 0.80764,1.155006 4.2262,5.2311 7.59679,9.057986 l 6.12833,6.957976 -4.00069,0.450936 c -4.17883,0.471016 -10.61709,3.32334 -11.15692,4.942823 -0.19404,0.582129 3.26365,1.159435 9.06807,1.514032 12.92819,0.789792 17.09817,2.158011 27.62963,9.065588 5.01818,3.29142 10.25305,6.49821 11.63305,7.1262 2.417,1.0999 2.50896,1.39596 2.50567,8.06642 -0.003,5.25768 -0.43214,7.62777 -1.78444,9.8456 -1.66931,2.73777 -6.59704,6.1817 -7.52183,5.25692 -0.22939,-0.2294 -1.11982,2.85317 -1.97872,6.85014 -4.18926,19.49492 -18.12663,35.36989 -37.06857,42.22188 -7.51538,2.71859 -23.02851,3.07826 -31.69748,0.73491 z m 22.98805,-25.97477 c 5.44846,-2.27651 7.95937,-8.8464 3.61931,-9.47004 -1.26175,-0.18131 -2.2118,0.46257 -2.89499,1.96201 -2.34008,5.1359 -13.40555,5.5375 -17.77722,0.64518 -1.37292,-1.53643 -3.13076,-2.79352 -3.90631,-2.79352 -3.99124,0 -1.46151,7.03158 3.38989,9.42248 3.77,1.85796 13.3763,1.98584 17.56932,0.23389 z m -0.41262,-21.74561 c 1.65492,-1.12909 3.34472,-2.9767 3.75511,-4.10579 l 0.74615,-2.05289 h -12.3514 c -12.23156,0 -12.34857,0.0196 -12.05984,2.02154 0.82519,5.72153 13.67433,8.39148 19.90998,4.13714 z M 96.460478,112.48757 c 5.074492,-2.30261 8.613532,-2.30802 13.101282,-0.02 4.20173,2.14217 5.01817,2.24416 5.01817,0.6269 0,-2.05448 -5.11377,-6.21211 -8.61083,-7.00083 -5.90376,-1.33151 -14.199062,2.63452 -14.199062,6.78866 0,1.76544 -0.08601,1.77268 4.69044,-0.39469 z m 56.791372,0.44457 c 3.19401,-2.41821 9.05619,-2.65297 13.804,-0.55278 5.24374,2.31955 5.00502,2.31218 5.00502,0.15439 0,-0.96721 -1.07396,-2.60334 -2.38657,-3.63585 -5.64551,-4.44076 -13.5463,-4.07606 -17.94081,0.82814 -3.36703,3.75755 -2.26989,6.07423 1.51836,3.2061 z"
             id="path921" />
          <path
             style="fill:#e8ac84;fill-opacity:1;stroke-width:0.912396"
             d="m 124.12615,224.15268 c -5.32624,-1.89114 -10.17099,-6.25733 -12.91805,-11.64202 -1.98626,-3.89338 -2.46958,-6.28884 -2.82272,-13.99005 l -0.4261,-9.29229 6.73181,2.13068 c 12.47599,3.94875 24.0637,3.82178 36.06159,-0.39514 l 4.88507,-1.71696 v 7.97997 c 0,10.4402 -1.79276,15.65906 -7.25572,21.12203 -6.67506,6.67506 -15.71204,8.83736 -24.25588,5.80378 z"
             id="path923" />
          <path
             style="fill:#d68f5f;fill-opacity:1;stroke-width:0.912396"
             d="m 120.49312,192.38708 c -3.02047,-0.68911 -7.02361,-1.89298 -8.89586,-2.67526 -3.10012,-1.29531 -3.4041,-1.73801 -3.4041,-4.95761 v -3.53529 l 6.61487,2.3002 c 5.58434,1.94184 8.24951,2.30019 17.10742,2.30019 8.87572,0 11.51885,-0.35679 17.15277,-2.3154 l 6.66022,-2.3154 -0.27345,3.73204 -0.27344,3.73204 -6.38677,2.16389 c -7.91458,2.68152 -20.3963,3.3742 -28.30166,1.5706 z"
             id="path925" />
          <path
             style="fill:#d68f5f;fill-opacity:1;stroke-width:0.912396"
             d="m 128.51682,137.04473 c -3.80538,-0.79548 -7.55012,-3.26633 -7.55012,-4.98172 0,-1.11681 1.95839,-1.34756 11.43705,-1.34756 11.11013,0 11.40946,0.0516 10.47165,1.80388 -1.85862,3.47285 -8.85109,5.67667 -14.35858,4.5254 z"
             id="path927" />
          <path
             style="fill:#d68f5f;fill-opacity:1;stroke-width:0.912396"
             d="m 112.08813,89.389832 -2.948,-0.898651 8.13629,-3.977368 c 9.38557,-4.588074 21.44684,-13.350096 25.60649,-18.602082 l 2.86894,-3.622333 4.17355,5.700656 c 2.29545,3.135361 7.46665,9.087925 11.49156,13.227921 5.17351,5.321442 6.82091,7.527266 5.62169,7.527266 -1.69476,0 -13.52189,-11.347616 -18.01252,-17.282223 l -2.37605,-3.140087 -6.38445,6.022764 c -6.2267,5.873957 -15.60631,12.119995 -22.03611,14.674223 -2.34428,0.93126 -3.97725,1.029619 -6.14139,0.369914 z"
             id="path929" />
          <path
             style="fill:#d68f5f;fill-opacity:1;stroke-width:0.912396"
             d="m 66.37471,109.15996 c 0.349544,-1.81504 18.747914,-11.511663 20.589177,-10.851263 0.618433,0.221811 2.676748,-0.144398 4.574033,-0.813799 1.897285,-0.669402 5.291787,-1.488218 7.543337,-1.819593 2.839423,-0.417896 -0.658699,1.310973 -11.417001,5.642595 -8.530901,3.4348 -16.880798,6.96704 -18.555327,7.84941 -2.907902,1.53229 -3.030663,1.53196 -2.734219,-0.007 z"
             id="path931" />
          <path
             style="fill:#d68f5f;fill-opacity:1;stroke-width:0.912396"
             d="m 190.80264,107.35981 c -9.14193,-5.51241 -13.26739,-8.605763 -13.26739,-9.948168 0,-0.784925 3.89282,1.240833 10.03635,5.222748 8.92817,5.78677 11.52924,8.01347 9.35206,8.00601 -0.37636,-0.001 -3.13082,-1.47756 -6.12102,-3.28059 z"
             id="path933" />
        </g>
      </g>
    </g>
  </g>
</svg>
