<?xml version="1.0" encoding="UTF-8" standalone="no"?>
<svg
   xmlns:dc="http://purl.org/dc/elements/1.1/"
   xmlns:cc="http://creativecommons.org/ns#"
   xmlns:rdf="http://www.w3.org/1999/02/22-rdf-syntax-ns#"
   xmlns:svg="http://www.w3.org/2000/svg"
   xmlns="http://www.w3.org/2000/svg"
   xmlns:sodipodi="http://sodipodi.sourceforge.net/DTD/sodipodi-0.dtd"
   xmlns:inkscape="http://www.inkscape.org/namespaces/inkscape"
   width="45.155556mm"
   height="63.852776mm"
   viewBox="0 0 45.155556 63.852776"
   version="1.1"
   id="svg1464"
   inkscape:version="1.0.1 (3bc2e813f5, 2020-09-07)"
   sodipodi:docname="css.svg">
  <defs
     id="defs1458" />
  <sodipodi:namedview
     id="base"
     pagecolor="#ffffff"
     bordercolor="#666666"
     borderopacity="1.0"
     inkscape:pageopacity="0.0"
     inkscape:pageshadow="2"
     inkscape:zoom="2.8"
     inkscape:cx="78.735255"
     inkscape:cy="122.77992"
     inkscape:document-units="mm"
     inkscape:current-layer="g2041"
     inkscape:document-rotation="0"
     showgrid="false"
     inkscape:window-width="1267"
     inkscape:window-height="1040"
     inkscape:window-x="2034"
     inkscape:window-y="2"
     inkscape:window-maximized="0" />
  <metadata
     id="metadata1461">
    <rdf:RDF>
      <cc:Work
         rdf:about="">
        <dc:format>image/svg+xml</dc:format>
        <dc:type
           rdf:resource="http://purl.org/dc/dcmitype/StillImage" />
        <dc:title></dc:title>
      </cc:Work>
    </rdf:RDF>
  </metadata>
  <g
     inkscape:label="Layer 1"
     inkscape:groupmode="layer"
     id="layer1"
     transform="translate(-104.42223,-48.204563)">
    <g
       id="g2041"
       transform="translate(-5.8586309,20.694197)">
      <path
         style="fill:#1471b5;stroke-width:0.352778"
         d="m 123.93262,88.923192 c -4.81507,-1.32286 -8.83008,-2.48061 -8.92223,-2.57276 -0.12552,-0.12551 -4.34714,-44.443259 -4.36783,-45.852494 -0.002,-0.145521 10.15612,-0.264583 22.5739,-0.264583 12.41778,0 22.57603,0.119062 22.57389,0.264583 -0.0205,1.399028 -4.24183,45.726504 -4.36639,45.851054 -0.21631,0.21632 -17.92156,5.03515 -18.38389,5.00353 -0.19403,-0.0133 -4.29238,-1.10646 -9.10745,-2.42933 z m 18.48841,-9.894676 2.3254,-0.691776 0.59825,-7.321832 c 0.32904,-4.027007 0.68562,-7.917144 0.79241,-8.644748 l 0.19416,-1.322917 -6.4692,-0.01121 -6.4692,-0.01121 6.60543,-2.84746 c 7.36933,-3.176756 6.64895,-2.49517 7.12716,-6.743315 l 0.18863,-1.675695 h -14.20652 -14.20652 l 0.32785,2.814929 0.32784,2.814929 6.91806,0.09549 6.91807,0.09549 -6.52639,2.705048 c -4.49939,1.864901 -6.56486,2.894185 -6.65024,3.314018 -0.0681,0.334933 -0.0158,1.617973 0.11627,2.851202 l 0.24013,2.242231 h 9.67331 9.67331 l -0.003,1.322917 c -10e-4,0.727604 -0.1011,2.366539 -0.2216,3.642078 l -0.2191,2.319161 -3.24353,0.825298 c -3.43663,0.874434 -3.22918,0.884252 -8.04312,-0.380696 -1.26307,-0.331893 -1.32314,-0.414828 -1.32774,-1.833326 -0.01,-3.008644 -0.0779,-3.07321 -3.24443,-3.07321 h -2.81418 l 0.20065,1.675695 c 0.11036,0.921632 0.30209,2.899999 0.42608,4.396376 l 0.22542,2.720679 1.81189,0.534307 c 0.99654,0.293867 3.61482,1.066713 5.8184,1.717433 l 4.0065,1.18312 3.40183,-1.01062 c 1.871,-0.55583 4.44826,-1.32191 5.72723,-1.702383 z M 119.8109,32.119466 v -4.233333 h 3.52778 3.52778 v 1.393506 1.393506 l -2.02847,0.105799 -2.02848,0.1058 -0.10949,1.322916 -0.10949,1.322917 h 2.13797 2.13796 v 1.411111 1.411111 h -3.52778 -3.52778 z m 9.87778,2.822222 c 0,-1.392244 0.0175,-1.411111 1.30632,-1.411111 h 1.30632 L 130.995,32.192786 c -1.08766,-1.113858 -1.30632,-1.586269 -1.30632,-2.822222 v -1.484431 h 3.52778 3.52778 v 1.411111 c 0,1.377513 -0.0294,1.411111 -1.23473,1.411111 -0.67909,0 -1.23472,0.127608 -1.23472,0.283574 0,0.155966 0.55563,0.822108 1.23472,1.480315 0.98497,0.954669 1.23473,1.468174 1.23473,2.538647 v 1.341908 h -3.52778 -3.52778 z m 9.87778,0 c 0,-1.392244 0.0175,-1.411111 1.30632,-1.411111 h 1.30631 l -1.30631,-1.337791 c -1.08766,-1.113858 -1.30632,-1.586269 -1.30632,-2.822222 v -1.484431 h 3.52778 3.52777 v 1.411111 c 0,1.377513 -0.0294,1.411111 -1.23472,1.411111 -0.6791,0 -1.23472,0.127608 -1.23472,0.283574 0,0.155966 0.55562,0.822108 1.23472,1.480315 0.98497,0.954669 1.23472,1.468174 1.23472,2.538647 v 1.341908 h -3.52777 -3.52778 z"
         id="path2043" />
    </g>
  </g>
</svg>
