<?xml version="1.0" encoding="UTF-8" standalone="no"?>
<svg
   xmlns:dc="http://purl.org/dc/elements/1.1/"
   xmlns:cc="http://creativecommons.org/ns#"
   xmlns:rdf="http://www.w3.org/1999/02/22-rdf-syntax-ns#"
   xmlns:svg="http://www.w3.org/2000/svg"
   xmlns="http://www.w3.org/2000/svg"
   xmlns:sodipodi="http://sodipodi.sourceforge.net/DTD/sodipodi-0.dtd"
   xmlns:inkscape="http://www.inkscape.org/namespaces/inkscape"
   width="44.475422mm"
   height="63.125069mm"
   viewBox="0 0 44.475422 63.125069"
   version="1.1"
   id="svg8"
   inkscape:version="1.0.1 (3bc2e813f5, 2020-09-07)"
   sodipodi:docname="html.svg">
  <defs
     id="defs2" />
  <sodipodi:namedview
     id="base"
     pagecolor="#ffffff"
     bordercolor="#666666"
     borderopacity="1.0"
     inkscape:pageopacity="0.0"
     inkscape:pageshadow="2"
     inkscape:zoom="1.979899"
     inkscape:cx="99.051765"
     inkscape:cy="95.852628"
     inkscape:document-units="mm"
     inkscape:current-layer="g849"
     inkscape:document-rotation="0"
     showgrid="false"
     inkscape:window-width="1267"
     inkscape:window-height="1040"
     inkscape:window-x="2063"
     inkscape:window-y="0"
     inkscape:window-maximized="0" />
  <metadata
     id="metadata5">
    <rdf:RDF>
      <cc:Work
         rdf:about="">
        <dc:format>image/svg+xml</dc:format>
        <dc:type
           rdf:resource="http://purl.org/dc/dcmitype/StillImage" />
        <dc:title></dc:title>
      </cc:Work>
    </rdf:RDF>
  </metadata>
  <g
     inkscape:label="Layer 1"
     inkscape:groupmode="layer"
     id="layer1"
     transform="translate(-131.39993,-81.108322)">
    <g
       id="g849"
       transform="translate(0.53453929,0.26726958)">
      <path
         style="fill:#e54f26;stroke-width:0.352778"
         d="m 143.56113,141.47472 -8.66021,-2.46904 -2.02418,-22.11495 c -1.1133,-12.16323 -2.01839,-22.392768 -2.01131,-22.732317 0.0121,-0.581294 1.31128,-0.617361 22.23786,-0.617361 20.92673,0 22.22573,0.03606 22.23748,0.617361 0.007,0.339549 -0.89917,10.569497 -2.01342,22.733217 l -2.02591,22.11585 -8.84811,2.4904 c -4.86646,1.36972 -9.15948,2.48038 -9.54005,2.46814 -0.38056,-0.0122 -4.58903,-1.13333 -9.35215,-2.4913 z m 15.28752,-8.28927 c 3.14596,-0.89683 5.77481,-1.67932 5.84189,-1.73887 0.0671,-0.0596 0.41528,-3.25484 0.77377,-7.10065 0.35849,-3.84581 0.73268,-7.74644 0.83154,-8.66807 l 0.17975,-1.6757 h -10.39032 -10.39032 l -0.003,-0.97014 c -0.002,-0.53357 -0.10318,-1.80357 -0.22553,-2.82222 l -0.22246,-1.85208 h 10.79288 10.79287 l 0.17482,-1.14653 c 0.0962,-0.63059 0.26756,-1.97997 0.38091,-2.99861 l 0.2061,-1.85209 H 153.0845 138.57745 l 0.19538,1.32292 c 0.10746,0.72761 0.44402,4.18042 0.74792,7.67292 0.30391,3.4925 0.63401,6.86594 0.73357,7.49653 l 0.18101,1.14652 h 9.67866 9.67865 l -0.16174,1.49931 c -0.0889,0.82462 -0.25172,2.37745 -0.36179,3.45075 l -0.20012,1.95144 -2.99812,0.82726 -2.99812,0.82725 -2.89515,-0.81505 c -1.59233,-0.44828 -3.01177,-0.98432 -3.15432,-1.1912 -0.14255,-0.20688 -0.26162,-1.20958 -0.26459,-2.22823 l -0.005,-1.85208 h -3.10739 -3.10739 l 0.42994,4.4369 c 0.23646,2.44029 0.48385,4.4853 0.54975,4.54447 0.12669,0.11374 10.85892,3.26633 11.33323,3.32913 0.15252,0.0202 2.85127,-0.69705 5.99722,-1.59388 z m -24.0898,-48.111065 v -4.233333 h 1.41111 1.41111 v 1.5875 1.5875 h 1.41111 1.41111 v -1.5875 c 0,-1.579101 0.007,-1.5875 1.23472,-1.5875 h 1.23472 v 4.233333 4.233334 h -1.23472 c -1.20532,0 -1.23472,-0.0336 -1.23472,-1.411111 v -1.411112 h -1.41111 -1.41111 v 1.411112 1.411111 h -1.41111 -1.41111 z m 12.34722,1.411111 v -2.822222 h -1.23472 c -1.20533,0 -1.23473,-0.0336 -1.23473,-1.411111 v -1.411111 h 3.70417 3.70417 v 1.411111 c 0,1.377513 -0.0294,1.411111 -1.23473,1.411111 h -1.23472 v 2.822222 2.822223 h -1.23472 -1.23472 z m 6.70278,-1.411111 v -4.233333 h 1.23407 c 1.08623,0 1.35591,0.195745 2.25102,1.633861 l 1.01694,1.633861 0.9575,-1.633861 c 0.87958,-1.500892 1.06962,-1.633861 2.3351,-1.633861 h 1.37759 v 4.233333 4.233334 h -1.23472 -1.23473 v -2.116667 c 0,-1.164167 -0.11906,-2.115444 -0.26458,-2.11395 -0.14552,0.0015 -0.64292,0.665007 -1.10533,1.474472 l -0.84075,1.471754 -0.92314,-1.562666 -0.92314,-1.562666 -0.10503,2.204862 -0.10503,2.204861 h -1.21789 -1.21788 z m 10.93611,0 v -4.233333 h 1.23472 1.23472 v 2.998611 2.998611 h 2.11667 2.11667 v 1.234722 1.234723 h -3.35139 -3.35139 z"
         id="path851" />
    </g>
  </g>
</svg>
