<?xml version="1.0" encoding="UTF-8" standalone="no"?>
<svg
   xmlns:dc="http://purl.org/dc/elements/1.1/"
   xmlns:cc="http://creativecommons.org/ns#"
   xmlns:rdf="http://www.w3.org/1999/02/22-rdf-syntax-ns#"
   xmlns:svg="http://www.w3.org/2000/svg"
   xmlns="http://www.w3.org/2000/svg"
   xmlns:sodipodi="http://sodipodi.sourceforge.net/DTD/sodipodi-0.dtd"
   xmlns:inkscape="http://www.inkscape.org/namespaces/inkscape"
   width="44.469269mm"
   height="63.111214mm"
   viewBox="0 0 44.469269 63.111214"
   version="1.1"
   id="svg875"
   inkscape:version="1.0.1 (3bc2e813f5, 2020-09-07)"
   sodipodi:docname="js.svg">
  <defs
     id="defs869" />
  <sodipodi:namedview
     id="base"
     pagecolor="#ffffff"
     bordercolor="#666666"
     borderopacity="1.0"
     inkscape:pageopacity="0.0"
     inkscape:pageshadow="2"
     inkscape:zoom="1.979899"
     inkscape:cx="73.222157"
     inkscape:cy="137.94851"
     inkscape:document-units="mm"
     inkscape:current-layer="layer1"
     inkscape:document-rotation="0"
     showgrid="false"
     inkscape:window-width="1267"
     inkscape:window-height="1040"
     inkscape:window-x="2061"
     inkscape:window-y="0"
     inkscape:window-maximized="0" />
  <metadata
     id="metadata872">
    <rdf:RDF>
      <cc:Work
         rdf:about="">
        <dc:format>image/svg+xml</dc:format>
        <dc:type
           rdf:resource="http://purl.org/dc/dcmitype/StillImage" />
        <dc:title></dc:title>
      </cc:Work>
    </rdf:RDF>
  </metadata>
  <g
     inkscape:label="Layer 1"
     inkscape:groupmode="layer"
     id="layer1"
     transform="translate(-85.405299,-118.98947)">
    <g
       id="g1452"
       transform="translate(16.437076,20.312483)">
      <path
         style="fill:#e4a127;stroke-width:0.352778"
         d="m 81.483659,159.28801 -8.484851,-2.46365 -2.020272,-22.10633 c -1.111149,-12.15847 -2.015779,-22.38413 -2.010288,-22.72368 0.0094,-0.58132 1.307306,-0.61736 22.234982,-0.61736 20.92796,0 22.22554,0.036 22.23424,0.61736 0.005,0.33955 -0.90008,10.56474 -2.01149,22.72265 l -2.02074,22.10529 -8.73763,2.50096 c -4.80569,1.37553 -9.17895,2.48464 -9.71836,2.46469 -0.53941,-0.0199 -4.79892,-1.14492 -9.465591,-2.49993 z m 15.464931,-8.26662 c 3.14596,-0.89683 5.77085,-1.67536 5.8331,-1.73007 0.0623,-0.0547 0.41472,-3.32939 0.78327,-7.27704 0.36856,-3.94766 0.75115,-7.85226 0.85022,-8.67687 l 0.18011,-1.49931 h -9.87103 -9.87103 v -2.82222 -2.82222 h 6.70278 6.70278 v 1.76389 1.76388 h 3.04886 3.04887 l -0.21383,-2.02847 c -0.11761,-1.11566 -0.39765,-3.25878 -0.62231,-4.7625 l -0.40847,-2.73403 H 91.51313 79.914343 l -2.67e-4,0.79375 c -1.47e-4,0.43657 -0.315602,4.04813 -0.701011,8.0257 -0.38541,3.97757 -0.70279,7.58913 -0.705289,8.02569 l -0.0045,0.79375 h 9.694634 9.69464 l -0.16167,1.49931 c -0.0889,0.82462 -0.25172,2.37745 -0.36179,3.45075 l -0.20012,1.95144 -2.99812,0.82726 -2.99812,0.82725 -2.89515,-0.81505 c -1.59233,-0.44828 -3.01177,-0.98432 -3.15432,-1.1912 -0.14255,-0.20688 -0.26161,-1.20958 -0.26459,-2.22823 l -0.005,-1.85208 h -3.046939 -3.046944 l 0.23908,3.43958 c 0.425941,6.12789 -0.216715,5.37277 6.147713,7.22345 3.04036,0.88409 5.65271,1.62471 5.80523,1.64581 0.15252,0.0211 2.85127,-0.69539 5.99722,-1.59222 z M 83.089343,105.90893 v -1.23472 h 1.940277 1.94028 v -2.99861 -2.99861 h 1.23472 1.23472 v 4.23333 4.23334 h -3.175 -3.174997 z m 9.524997,0 c 0,-1.20532 0.0336,-1.23472 1.41111,-1.23472 0.77612,0 1.41112,-0.12653 1.41112,-0.28118 0,-0.15465 -0.635,-0.90124 -1.41112,-1.6591 -1.08235,-1.05689 -1.41111,-1.64889 -1.41111,-2.54104 v -1.16312 h 3.35139 3.35139 v 1.23472 c 0,1.17593 -0.0588,1.23472 -1.23472,1.23472 -0.6791,0 -1.23472,0.12761 -1.23472,0.28358 0,0.15596 0.55562,0.8221 1.23472,1.48031 0.98497,0.95467 1.23472,1.46818 1.23472,2.53865 v 1.34191 h -3.35139 -3.35139 z"
         id="path1454" />
    </g>
  </g>
</svg>
